<svg width="73" height="73" viewBox="0 0 73 73" fill="none" xmlns="http://www.w3.org/2000/svg">
<path fill-rule="evenodd" clip-rule="evenodd" d="M36.5 0C16.3416 0 0 16.3416 0 36.5C0 37.8824 0.0768512 39.2468 0.226514 40.5893L3.5171 39.0288C6.8664 37.4965 7.46063 37.3908 13.1328 37.3908H19.2372V33.9563C19.2372 29.7821 20.4257 26.3476 23.0187 23.0188C25.1795 20.1655 29.6632 17.3122 32.9585 16.6253C41.7099 14.8288 50.4073 19.1616 53.7566 27.1402C54.783 29.5179 55.4853 30.3105 57.9162 31.7371C59.5368 32.6882 60.8333 33.6393 60.8333 33.8506C60.8333 34.062 59.4828 35.0659 57.8622 36.0699C55.9174 37.2323 54.729 38.3947 54.5129 39.2402C54.0267 41.1952 51.8658 45.2109 50.4073 46.9546C49.705 47.8 48.9487 49.5436 48.7326 50.8646C47.2267 60.7549 41.276 68.6024 32.1069 72.7383C33.5472 72.9111 35.0132 73 36.5 73C56.6584 73 73 56.6584 73 36.5C73 16.3416 56.6584 0 36.5 0ZM20.8032 69.4618C32.315 69.3132 41.3425 61.4666 43.0604 50.0192C43.6006 46.6375 44.0328 45.4751 45.7615 43.3087C51.1096 36.3869 50.3533 28.3026 43.9788 24.0755C39.279 21.0109 33.7148 21.2751 29.5552 24.8153C26.422 27.4044 25.0715 30.2048 25.1255 34.0092C25.1255 38.5004 27.5024 42.3048 31.9321 44.7882C32.7424 45.2637 32.7965 45.5808 32.1482 47.6415C31.7701 48.9096 31.1758 50.0192 30.7977 50.1777C30.4195 50.3362 27.9886 49.0681 25.4496 47.4301C19.7774 43.7843 17.1844 42.8332 13.2409 42.8332C8.44002 42.8826 4.58466 44.088 1.40944 46.5792C4.30835 56.6903 11.4593 65.0042 20.8032 69.4618ZM35.7136 29.465C32.9585 32.107 34.9033 36.5982 38.8468 36.5982C42.6283 36.5982 44.411 32.107 41.6559 29.465C40.8456 28.6196 39.7112 28.1441 38.6848 28.1441C37.6584 28.1441 36.5239 28.6196 35.7136 29.465ZM7.8928 48.7511C6.54227 49.2794 5.51587 49.9663 5.62392 50.3362C5.94804 51.8685 8.81115 55.303 11.08 56.8882C13.8351 58.8432 17.8867 60.3755 20.3176 60.3755C21.9382 60.3755 21.9382 60.3227 21.9382 57.5222V54.7218L19.6694 54.4048C17.0223 54.0349 13.457 51.7628 11.9444 49.3851C11.3501 48.4869 10.7559 47.7471 10.5938 47.7471C10.4318 47.7471 9.24332 48.1698 7.8928 48.7511Z" fill="#5E9CCA"/>
</svg>
