<?xml version="1.0" standalone="no"?>
<!DOCTYPE svg PUBLIC "-//W3C//DTD SVG 20010904//EN"
 "http://www.w3.org/TR/2001/REC-SVG-20010904/DTD/svg10.dtd">
<svg version="1.0" xmlns="http://www.w3.org/2000/svg"
 width="600.000000pt" height="200.000000pt" viewBox="0 0 600.000000 200.000000"
 preserveAspectRatio="xMidYMid meet">

<g transform="translate(0.000000,200.000000) scale(0.100000,-0.100000)"
fill="#000000" stroke="none">
<path d="M1015 1359 c-73 -36 -115 -101 -115 -178 l0 -49 -77 -4 c-47 -2 -91
-10 -112 -21 -19 -9 -37 -17 -40 -17 -3 0 -19 21 -36 45 -16 25 -32 45 -35 45
-3 -1 -16 -10 -29 -20 l-23 -20 57 -70 57 -70 32 25 c18 13 56 30 85 36 66 14
109 3 186 -47 30 -19 58 -34 63 -34 6 0 13 11 16 25 5 21 0 31 -24 52 -76 64
-80 155 -8 219 27 24 77 45 98 41 65 -13 113 -51 131 -104 15 -45 5 -89 -31
-146 -16 -26 -33 -66 -36 -90 -25 -158 -184 -265 -330 -221 -47 14 -110 51
-136 81 -9 10 -29 45 -43 77 -19 42 -51 85 -115 150 -88 90 -89 90 -109 72
-12 -11 -21 -22 -21 -25 0 -3 41 -48 90 -99 50 -51 90 -101 90 -110 1 -34 75
-127 133 -166 l57 -40 0 -58 0 -58 35 0 35 0 0 50 0 50 35 0 c33 0 35 -2 35
-35 0 -33 2 -35 34 -35 34 0 35 0 33 41 -2 36 1 42 23 50 49 18 74 34 122 81
50 48 81 106 92 175 4 23 18 56 31 74 14 18 29 46 35 63 6 18 26 41 47 55 l36
23 -36 21 c-21 12 -42 35 -52 57 -50 112 -176 161 -280 109z"/>
<path d="M2090 1045 l0 -265 88 0 c111 0 197 20 230 53 52 52 36 173 -26 199
-15 7 -28 13 -30 14 -1 1 13 17 33 37 35 35 40 52 35 122 -1 17 -11 41 -23 53
-38 41 -81 52 -198 52 l-109 0 0 -265z m237 172 c11 -11 18 -33 18 -57 0 -55
-23 -69 -107 -70 l-68 0 0 76 0 76 70 -4 c49 -2 75 -9 87 -21z m3 -217 c20
-11 40 -47 40 -74 0 -7 -11 -25 -25 -40 -22 -24 -31 -26 -100 -26 l-75 0 0 78
0 77 69 -2 c39 -1 79 -7 91 -13z"/>
<path d="M3010 1045 l0 -265 35 0 c24 0 35 5 35 15 0 19 10 19 40 -2 28 -20
105 -21 141 -3 30 16 68 58 81 90 17 42 13 151 -7 190 -20 39 -30 50 -68 74
-36 24 -115 25 -147 3 -14 -9 -28 -17 -32 -17 -5 0 -8 41 -8 90 l0 90 -35 0
-35 0 0 -265z m228 27 c55 -51 55 -153 0 -204 -35 -32 -71 -36 -123 -11 l-35
17 0 90 c0 99 3 106 40 123 45 21 85 15 118 -15z"/>
<path d="M4380 1045 l0 -265 88 0 c170 0 251 43 257 135 4 63 -8 88 -57 115
l-41 23 25 15 c83 50 76 177 -12 222 -32 16 -59 20 -150 20 l-110 0 0 -265z
m236 170 c21 -28 17 -82 -6 -105 -16 -16 -33 -20 -90 -20 l-70 0 0 76 0 76 76
-4 c60 -3 79 -7 90 -23z m-16 -205 c20 0 50 -45 50 -75 0 -18 -9 -41 -20 -53
-18 -19 -31 -22 -100 -22 l-80 0 0 75 0 74 58 4 c31 1 63 2 70 0 8 -2 18 -3
22 -3z"/>
<path d="M1085 1220 c-24 -27 -13 -68 22 -76 33 -9 57 6 61 38 6 50 -49 76
-83 38z"/>
<path d="M2665 1163 c-33 -4 -115 -33 -115 -40 0 -2 7 -17 15 -33 14 -27 16
-28 43 -14 75 37 169 26 191 -22 16 -36 15 -37 -29 -30 -44 7 -115 -6 -171
-30 -35 -15 -79 -74 -79 -106 0 -26 30 -75 54 -91 46 -30 139 -26 190 8 20 14
39 25 41 25 3 0 5 -11 5 -25 0 -22 4 -25 35 -25 l35 0 0 148 c0 159 -3 172
-58 210 -28 20 -105 33 -157 25z m139 -212 c3 -5 0 -24 -8 -43 -26 -61 -134
-90 -176 -48 -32 32 -23 65 24 86 35 15 152 19 160 5z"/>
<path d="M4960 1163 c-95 -14 -155 -91 -155 -198 0 -58 16 -96 60 -141 59 -61
243 -62 293 -1 9 11 8 19 -7 36 l-19 22 -41 -20 c-77 -40 -164 -21 -194 41
l-16 33 159 3 c179 3 169 -3 149 81 -11 47 -46 96 -88 122 -28 17 -100 28
-141 22z m92 -75 c33 -19 45 -32 52 -56 7 -22 6 -22 -103 -22 -118 0 -127 4
-93 46 35 43 99 57 144 32z"/>
<path d="M5410 1161 c-47 -10 -73 -25 -104 -61 -75 -90 -52 -234 47 -297 33
-21 53 -25 112 -26 62 0 80 4 119 27 40 23 44 29 32 41 -8 8 -16 20 -18 27 -3
9 -17 6 -51 -10 -77 -36 -153 -24 -191 30 -33 46 -27 48 144 48 181 0 172 -5
145 86 -30 102 -125 156 -235 135z m124 -95 c20 -18 36 -38 36 -45 0 -7 -36
-11 -115 -11 -63 0 -115 3 -115 6 0 17 25 47 53 64 50 31 99 26 141 -14z"/>
<path d="M3445 1143 c6 -16 36 -93 59 -158 5 -11 11 -29 16 -40 65 -165 69
-194 33 -230 -11 -12 -28 -16 -55 -13 -35 3 -39 1 -49 -30 -6 -18 -9 -36 -6
-39 11 -11 128 -6 151 7 33 17 47 48 126 270 28 80 55 154 59 165 22 52 31 76
31 80 0 3 -18 5 -40 5 -42 0 -40 3 -70 -75 -5 -11 -21 -60 -36 -108 -15 -48
-30 -90 -34 -92 -4 -3 -15 17 -25 43 -9 26 -28 79 -42 117 -42 115 -41 115
-86 115 -33 0 -38 -3 -32 -17z"/>
<path d="M767 996 c-35 -13 -34 -26 8 -69 41 -42 88 -67 127 -67 24 0 28 4 28
28 0 25 -6 30 -39 41 -22 6 -52 26 -68 44 -25 29 -32 31 -56 23z"/>
</g>
</svg>
